<svg width="171" height="132" viewBox="0 0 171 132" fill="none" xmlns="http://www.w3.org/2000/svg">
<path d="M49.7145 35.3598C48.2765 36.7979 45.8786 36.3185 44.9199 34.4011C43.9613 32.4838 44.4406 30.0857 45.8786 28.6479L83.2771 0.359507C84.7151 -0.119836 85.675 -0.119836 87.113 0.359507L124.032 28.6479C125.95 30.086 126.43 32.4839 125.47 34.4011C124.512 36.3186 122.114 36.799 120.676 35.3598L85.194 8.50951L49.7122 35.3598H49.7145Z" fill="#6E89B2"/>
<path d="M15.6735 76.1154C14.2354 77.5534 11.8375 76.5947 10.8789 75.1567C9.92021 73.2393 10.3995 70.3621 11.8376 69.4035L49.236 41.1151C50.1947 40.1564 51.6339 40.6357 53.072 41.1151L85.1967 65.5675L117.321 41.1151C118.759 40.1564 120.199 40.6357 121.157 41.1151L158.556 69.4035C159.994 70.3622 160.473 73.2394 159.514 75.1567C158.556 76.5947 156.158 77.5546 154.72 76.1154L119.238 49.265C107.731 57.8956 96.7029 66.5262 85.1967 75.1568L51.1554 49.265L15.6735 76.1154Z" fill="#6E89B2"/>
<path fill-rule="evenodd" clip-rule="evenodd" d="M150.404 78.5112V113.032C150.404 115.909 148.006 118.306 145.13 118.306H130.267V91.9346C130.267 89.0574 128.349 87.14 125.951 87.14H112.526C110.128 87.14 108.211 89.0574 108.211 91.9346V118.306H93.3474C90.4702 118.306 88.0734 115.908 88.0734 113.032V78.5112L119.24 54.5379L150.406 78.5112H150.404ZM116.842 71.3187H121.636C122.595 71.3187 123.554 72.2774 123.554 73.2361V78.0307C123.554 78.9894 122.595 79.9481 121.636 79.9481H116.842C115.883 79.9481 114.924 78.9894 114.924 78.0307V73.2361C114.924 72.2774 115.883 71.3187 116.842 71.3187Z" fill="#6E89B2"/>
<path fill-rule="evenodd" clip-rule="evenodd" d="M82.3184 78.5112V113.032C82.3184 115.909 79.9205 118.306 77.0443 118.306H62.1811V91.9346C62.1811 89.0574 60.2637 87.14 57.3865 87.14H44.4405C42.0426 87.14 39.6459 89.0574 39.6459 91.9346V118.306H25.2621C22.3848 118.306 19.988 115.908 19.988 113.032V78.5112L51.1544 54.5379L82.3207 78.5112H82.3184ZM48.7562 71.3187H53.5508C54.5095 71.3187 55.4682 72.2774 55.4682 73.2361V78.0307C55.4682 78.9894 54.5095 79.9481 53.5508 79.9481H48.7562C47.7975 79.9481 46.8388 78.9894 46.8388 78.0307V73.2361C46.8388 72.2774 47.7975 71.3187 48.7562 71.3187Z" fill="#6E89B2"/>
<path d="M0 86.3195H171V131.118H0V86.3195Z" fill="white"/>
<path d="M27.1139 103.802H26.2944L30.8823 91.0874H31.7763L36.3642 103.802H35.5447L31.3604 92.0869H31.2983L27.1139 103.802ZM28.2749 99.0153H34.3838V99.7355H28.2749V99.0153Z" fill="#6C6C6C"/>
<path d="M53.0845 91.0874V103.802H52.3271L44.2191 92.4967H44.1446V103.802H43.3686V91.0874H44.1322L52.2402 102.405H52.3147V91.0874H53.0845Z" fill="#6C6C6C"/>
<path d="M64.9127 103.802H61.3864V91.0874H65.1859C66.3779 91.0874 67.3981 91.3399 68.2465 91.8448C69.095 92.3498 69.7448 93.0741 70.1959 94.0177C70.6512 94.9572 70.8768 96.0851 70.8726 97.4012C70.8685 98.7463 70.6326 99.8969 70.1649 100.853C69.6972 101.805 69.0205 102.535 68.1348 103.045C67.2491 103.549 66.1751 103.802 64.9127 103.802ZM62.1625 103.082H64.8817C66.0157 103.082 66.9718 102.856 67.7499 102.405C68.528 101.95 69.1157 101.298 69.513 100.449C69.9145 99.601 70.1132 98.5849 70.109 97.4012C70.109 96.2341 69.9166 95.2345 69.5317 94.4026C69.1467 93.5666 68.5859 92.9251 67.8492 92.4781C67.1166 92.0311 66.2185 91.8076 65.1548 91.8076H62.1625V103.082Z" fill="#6C6C6C"/>
<path d="M78.5336 103.802V91.0874H82.451C83.2539 91.0874 83.9451 91.2447 84.5245 91.5592C85.104 91.8738 85.5489 92.3104 85.8593 92.8692C86.1697 93.4238 86.3249 94.0694 86.3249 94.8062C86.3249 95.5346 86.1697 96.1761 85.8593 96.7307C85.5489 97.2812 85.104 97.7116 84.5245 98.022C83.9492 98.3324 83.2601 98.4876 82.4572 98.4876H78.9495V97.7613H82.4385C83.0925 97.7613 83.6512 97.6392 84.1148 97.395C84.5783 97.1508 84.9343 96.8093 85.1826 96.3706C85.4309 95.9278 85.5551 95.4063 85.5551 94.8062C85.5551 94.2019 85.4309 93.6763 85.1826 93.2293C84.9343 92.7781 84.5762 92.4284 84.1086 92.1801C83.645 91.9317 83.0863 91.8076 82.4323 91.8076H79.3096V103.802H78.5336ZM83.7547 98.0407L86.8836 103.802H85.9897L82.8793 98.0407H83.7547Z" fill="#6C6C6C"/>
<path d="M94.8348 91.0874V103.802H94.0588V91.0874H94.8348Z" fill="#6C6C6C"/>
<path d="M110.001 94.266C109.935 93.4755 109.612 92.8361 109.033 92.3477C108.458 91.8593 107.713 91.6151 106.798 91.6151C106.181 91.6151 105.633 91.7289 105.153 91.9566C104.673 92.1842 104.296 92.4946 104.023 92.8878C103.75 93.281 103.613 93.7321 103.613 94.2412C103.613 94.5682 103.675 94.8641 103.799 95.129C103.928 95.3897 104.108 95.6236 104.34 95.8305C104.571 96.0333 104.847 96.2113 105.165 96.3644C105.484 96.5176 105.836 96.6521 106.221 96.768L107.611 97.1777C108.087 97.3226 108.526 97.4902 108.927 97.6806C109.333 97.871 109.685 98.0986 109.983 98.3635C110.285 98.6242 110.519 98.9305 110.684 99.2823C110.854 99.6341 110.939 100.04 110.939 100.499C110.939 101.17 110.765 101.77 110.417 102.3C110.074 102.829 109.583 103.247 108.946 103.554C108.313 103.856 107.566 104.007 106.705 104.007C105.885 104.007 105.171 103.868 104.563 103.591C103.959 103.314 103.481 102.929 103.129 102.436C102.777 101.939 102.578 101.368 102.533 100.723H103.328C103.369 101.248 103.537 101.704 103.83 102.088C104.128 102.469 104.524 102.763 105.016 102.97C105.509 103.177 106.072 103.28 106.705 103.28C107.388 103.28 107.99 103.165 108.512 102.933C109.033 102.697 109.441 102.37 109.735 101.952C110.028 101.534 110.175 101.048 110.175 100.493C110.175 100.046 110.07 99.6631 109.859 99.3444C109.648 99.0257 109.335 98.7505 108.921 98.5187C108.512 98.2869 108.002 98.08 107.394 97.8979L105.91 97.4509C104.917 97.1487 104.157 96.7369 103.632 96.2154C103.11 95.6939 102.85 95.0441 102.85 94.266C102.85 93.6121 103.023 93.0327 103.371 92.5277C103.719 92.0187 104.191 91.6193 104.787 91.3295C105.387 91.0398 106.063 90.895 106.817 90.895C107.574 90.895 108.242 91.0419 108.822 91.3357C109.401 91.6255 109.861 92.0249 110.2 92.5339C110.54 93.0389 110.728 93.6162 110.765 94.266H110.001Z" fill="#6C6C6C"/>
<path d="M128.324 95.0607H127.529C127.446 94.6303 127.291 94.2143 127.063 93.8128C126.836 93.4072 126.542 93.043 126.182 92.7202C125.826 92.3932 125.412 92.1345 124.94 91.9442C124.468 91.7538 123.947 91.6586 123.376 91.6586C122.54 91.6586 121.77 91.8821 121.066 92.3291C120.367 92.7719 119.806 93.4238 119.384 94.2847C118.966 95.1455 118.757 96.1989 118.757 97.4447C118.757 98.6987 118.966 99.7562 119.384 100.617C119.806 101.478 120.367 102.13 121.066 102.573C121.77 103.011 122.54 103.231 123.376 103.231C123.947 103.231 124.468 103.138 124.94 102.951C125.412 102.761 125.826 102.504 126.182 102.182C126.542 101.855 126.836 101.488 127.063 101.083C127.291 100.677 127.446 100.259 127.529 99.8286H128.324C128.232 100.342 128.057 100.845 127.796 101.337C127.539 101.83 127.2 102.277 126.778 102.678C126.36 103.076 125.865 103.392 125.294 103.628C124.727 103.86 124.087 103.976 123.376 103.976C122.316 103.976 121.383 103.707 120.576 103.169C119.769 102.626 119.135 101.865 118.676 100.884C118.221 99.9031 117.993 98.7567 117.993 97.4447C117.993 96.1327 118.221 94.9862 118.676 94.0053C119.135 93.0244 119.769 92.2649 120.576 91.7269C121.383 91.1847 122.316 90.9136 123.376 90.9136C124.087 90.9136 124.727 91.0315 125.294 91.2675C125.865 91.4992 126.36 91.8138 126.778 92.2111C127.2 92.6043 127.539 93.0472 127.796 93.5397C128.057 94.0322 128.232 94.5392 128.324 95.0607Z" fill="#6C6C6C"/>
<path d="M135.449 103.802H134.629L139.217 91.0874H140.111L144.699 103.802H143.88L139.695 92.0869H139.633L135.449 103.802ZM136.61 99.0153H142.719V99.7355H136.61V99.0153Z" fill="#6C6C6C"/>
<path d="M11.2659 121.284V108.57H15.1833C15.9903 108.57 16.6815 108.735 17.2568 109.067C17.8363 109.398 18.2812 109.851 18.5916 110.426C18.902 111.001 19.0572 111.657 19.0572 112.394C19.0572 113.123 18.902 113.774 18.5916 114.35C18.2812 114.925 17.8363 115.38 17.2568 115.716C16.6815 116.047 15.9924 116.212 15.1895 116.212H11.8122V115.492H15.1709C15.8248 115.492 16.3835 115.36 16.8471 115.095C17.3106 114.826 17.6666 114.459 17.9149 113.996C18.1632 113.528 18.2874 112.994 18.2874 112.394C18.2874 111.79 18.1632 111.254 17.9149 110.786C17.6666 110.319 17.3086 109.952 16.8409 109.687C16.3773 109.422 15.8186 109.29 15.1646 109.29H12.0419V121.284H11.2659Z" fill="#AFAFAF"/>
<path d="M22.2963 121.284V111.748H23.035V113.238H23.1033C23.3103 112.75 23.66 112.359 24.1525 112.065C24.645 111.767 25.2059 111.618 25.835 111.618C25.9012 111.618 25.9674 111.618 26.0336 111.618C26.0998 111.618 26.1619 111.62 26.2199 111.624V112.388C26.1702 112.384 26.1102 112.378 26.0398 112.369C25.9736 112.357 25.8908 112.351 25.7915 112.351C25.2617 112.351 24.7899 112.465 24.376 112.692C23.9663 112.92 23.6434 113.234 23.4075 113.636C23.1716 114.033 23.0537 114.488 23.0537 115.002V121.284H22.2963Z" fill="#AFAFAF"/>
<path d="M32.0338 121.483C31.2474 121.483 30.5479 121.272 29.9354 120.85C29.3228 120.423 28.8407 119.838 28.4889 119.093C28.1371 118.348 27.9612 117.499 27.9612 116.547C27.9612 115.591 28.1371 114.743 28.4889 114.002C28.8407 113.257 29.3228 112.671 29.9354 112.245C30.5479 111.819 31.2474 111.606 32.0338 111.606C32.8201 111.606 33.5196 111.819 34.1322 112.245C34.7447 112.671 35.2269 113.257 35.5787 114.002C35.9305 114.747 36.1064 115.596 36.1064 116.547C36.1064 117.499 35.9305 118.348 35.5787 119.093C35.2269 119.838 34.7447 120.423 34.1322 120.85C33.5196 121.272 32.8201 121.483 32.0338 121.483ZM32.0338 120.781C32.7001 120.781 33.2816 120.593 33.7783 120.217C34.2791 119.84 34.6661 119.331 34.9392 118.689C35.2165 118.048 35.3552 117.334 35.3552 116.547C35.3552 115.761 35.2165 115.049 34.9392 114.412C34.6619 113.77 34.2749 113.261 33.7783 112.885C33.2816 112.504 32.7001 112.313 32.0338 112.313C31.3674 112.313 30.7859 112.504 30.2892 112.885C29.7926 113.261 29.4056 113.77 29.1283 114.412C28.851 115.049 28.7124 115.761 28.7124 116.547C28.7124 117.334 28.8489 118.048 29.1221 118.689C29.3994 119.331 29.7864 119.84 30.283 120.217C30.7838 120.593 31.3674 120.781 32.0338 120.781Z" fill="#AFAFAF"/>
<path d="M39.2399 124.86V111.748H39.9786V113.878H40.0718C40.2208 113.468 40.4298 113.092 40.6988 112.748C40.972 112.404 41.3093 112.129 41.7108 111.922C42.1164 111.711 42.5923 111.606 43.1386 111.606C43.9085 111.606 44.579 111.817 45.1501 112.239C45.7213 112.661 46.1641 113.245 46.4787 113.99C46.7932 114.731 46.9505 115.581 46.9505 116.541C46.9505 117.501 46.7912 118.354 46.4725 119.099C46.1579 119.84 45.7151 120.423 45.1439 120.85C44.5769 121.272 43.9126 121.483 43.1511 121.483C42.6089 121.483 42.1329 121.38 41.7232 121.173C41.3176 120.966 40.9761 120.69 40.6988 120.347C40.4256 119.999 40.2166 119.618 40.0718 119.205H39.9973V124.86H39.2399ZM39.9849 116.535C39.9849 117.346 40.109 118.073 40.3574 118.714C40.6057 119.352 40.9616 119.856 41.4252 120.229C41.8887 120.597 42.4413 120.781 43.0828 120.781C43.7326 120.781 44.2892 120.595 44.7528 120.223C45.2205 119.846 45.5764 119.337 45.8206 118.696C46.0689 118.054 46.1931 117.334 46.1931 116.535C46.1931 115.736 46.071 115.018 45.8268 114.381C45.5826 113.743 45.2288 113.241 44.7652 112.872C44.3017 112.5 43.7408 112.313 43.0828 112.313C42.433 112.313 41.8763 112.498 41.4128 112.866C40.9533 113.23 40.5995 113.731 40.3511 114.368C40.107 115.002 39.9849 115.724 39.9849 116.535Z" fill="#AFAFAF"/>
<path d="M53.812 121.483C52.9512 121.483 52.202 121.27 51.5647 120.844C50.9273 120.417 50.4348 119.834 50.0871 119.093C49.7394 118.352 49.5656 117.508 49.5656 116.56C49.5656 115.608 49.7394 114.759 50.0871 114.015C50.4389 113.27 50.9211 112.682 51.5336 112.251C52.1462 111.821 52.8456 111.606 53.632 111.606C54.1659 111.606 54.6709 111.713 55.1468 111.929C55.6269 112.14 56.0491 112.446 56.4133 112.847C56.7817 113.249 57.0693 113.733 57.2763 114.3C57.4873 114.867 57.5929 115.504 57.5929 116.212V116.684H50.0436V115.995H56.8355C56.8355 115.304 56.6948 114.681 56.4133 114.126C56.1319 113.572 55.749 113.131 55.2648 112.804C54.7805 112.477 54.2363 112.313 53.632 112.313C52.9988 112.313 52.4338 112.491 51.9372 112.847C51.4446 113.199 51.0535 113.675 50.7638 114.275C50.4782 114.875 50.3292 115.546 50.3168 116.287V116.597C50.3168 117.392 50.4555 118.106 50.7328 118.739C51.0142 119.368 51.4157 119.867 51.9372 120.235C52.4587 120.599 53.0836 120.781 53.812 120.781C54.3335 120.781 54.7785 120.695 55.1468 120.521C55.5193 120.343 55.8235 120.128 56.0594 119.875C56.2954 119.623 56.4733 119.378 56.5933 119.143L57.2825 119.422C57.1376 119.741 56.912 120.059 56.6058 120.378C56.3036 120.693 55.9187 120.955 55.451 121.166C54.9875 121.377 54.4412 121.483 53.812 121.483Z" fill="#AFAFAF"/>
<path d="M60.7248 121.284V111.748H61.4636V113.238H61.5319C61.7388 112.75 62.0886 112.359 62.5811 112.065C63.0736 111.767 63.6344 111.618 64.2635 111.618C64.3297 111.618 64.396 111.618 64.4622 111.618C64.5284 111.618 64.5905 111.62 64.6484 111.624V112.388C64.5988 112.384 64.5387 112.378 64.4684 112.369C64.4022 112.357 64.3194 112.351 64.2201 112.351C63.6903 112.351 63.2185 112.465 62.8046 112.692C62.3948 112.92 62.072 113.234 61.8361 113.636C61.6002 114.033 61.4822 114.488 61.4822 115.002V121.284H60.7248Z" fill="#AFAFAF"/>
<path d="M71.1763 111.748V112.425H67.0105V111.748H71.1763ZM68.4198 109.464H69.171V119.031C69.171 119.42 69.2455 119.739 69.3945 119.987C69.5476 120.231 69.7463 120.413 69.9905 120.533C70.2388 120.649 70.5037 120.707 70.7852 120.707C70.9217 120.707 71.0397 120.697 71.139 120.676C71.2425 120.655 71.3398 120.628 71.4308 120.595L71.6171 121.284C71.5012 121.326 71.3729 121.361 71.2322 121.39C71.0914 121.423 70.9259 121.44 70.7355 121.44C70.3382 121.44 69.9615 121.351 69.6056 121.173C69.2538 120.995 68.9682 120.736 68.7489 120.397C68.5295 120.057 68.4198 119.647 68.4198 119.167V109.464Z" fill="#AFAFAF"/>
<path d="M75.1184 124.86C74.928 124.86 74.7397 124.84 74.5534 124.798C74.3672 124.757 74.1996 124.703 74.0506 124.637L74.2741 123.973C74.6631 124.122 75.0149 124.175 75.3295 124.134C75.6482 124.093 75.9296 123.948 76.1738 123.699C76.418 123.451 76.6249 123.087 76.7946 122.607L77.2292 121.415L73.734 111.748H74.5472L77.5769 120.31H77.6389L80.6686 111.748H81.4819L77.4589 122.905C77.3058 123.335 77.1133 123.695 76.8815 123.985C76.6498 124.275 76.3849 124.492 76.0869 124.637C75.793 124.786 75.4702 124.86 75.1184 124.86Z" fill="#AFAFAF"/>
<path d="M96.9355 111.748C96.8693 110.958 96.5464 110.319 95.967 109.83C95.3917 109.342 94.6467 109.098 93.732 109.098C93.1153 109.098 92.5669 109.211 92.0868 109.439C91.6067 109.667 91.2301 109.977 90.9569 110.37C90.6838 110.763 90.5472 111.215 90.5472 111.724C90.5472 112.051 90.6093 112.347 90.7335 112.611C90.8618 112.872 91.0418 113.106 91.2736 113.313C91.5053 113.516 91.7806 113.694 92.0993 113.847C92.418 114 92.7698 114.135 93.1547 114.25L94.5453 114.66C95.0213 114.805 95.46 114.973 95.8615 115.163C96.2671 115.353 96.6189 115.581 96.9169 115.846C97.219 116.107 97.4528 116.413 97.6184 116.765C97.7881 117.117 97.8729 117.522 97.8729 117.982C97.8729 118.652 97.6991 119.252 97.3514 119.782C97.0079 120.312 96.5175 120.73 95.8801 121.036C95.2468 121.338 94.4998 121.489 93.6389 121.489C92.8194 121.489 92.1055 121.351 91.4971 121.073C90.8928 120.796 90.4148 120.411 90.063 119.919C89.7112 119.422 89.5125 118.851 89.467 118.205H90.2616C90.303 118.731 90.4706 119.186 90.7645 119.571C91.0625 119.952 91.4577 120.246 91.9503 120.452C92.4428 120.659 93.0057 120.763 93.6389 120.763C94.3218 120.763 94.924 120.647 95.4455 120.415C95.967 120.179 96.3747 119.852 96.6685 119.434C96.9624 119.016 97.1093 118.53 97.1093 117.975C97.1093 117.528 97.0038 117.146 96.7927 116.827C96.5816 116.508 96.2691 116.233 95.8553 116.001C95.4455 115.769 94.9364 115.562 94.328 115.38L92.8443 114.933C91.8509 114.631 91.0915 114.219 90.5658 113.698C90.0443 113.176 89.7836 112.527 89.7836 111.748C89.7836 111.095 89.9574 110.515 90.3051 110.01C90.6527 109.501 91.1246 109.102 91.7206 108.812C92.3207 108.522 92.9974 108.377 93.7507 108.377C94.5081 108.377 95.1765 108.524 95.7559 108.818C96.3354 109.108 96.7948 109.507 97.1341 110.016C97.4735 110.521 97.6619 111.099 97.6991 111.748H96.9355Z" fill="#AFAFAF"/>
<path d="M104.916 121.483C104.055 121.483 103.306 121.27 102.669 120.844C102.031 120.417 101.539 119.834 101.191 119.093C100.843 118.352 100.67 117.508 100.67 116.56C100.67 115.608 100.843 114.759 101.191 114.015C101.543 113.27 102.025 112.682 102.638 112.251C103.25 111.821 103.95 111.606 104.736 111.606C105.27 111.606 105.775 111.713 106.251 111.929C106.731 112.14 107.153 112.446 107.517 112.847C107.886 113.249 108.173 113.733 108.38 114.3C108.591 114.867 108.697 115.504 108.697 116.212V116.684H101.148V115.995H107.939C107.939 115.304 107.799 114.681 107.517 114.126C107.236 113.572 106.853 113.131 106.369 112.804C105.885 112.477 105.34 112.313 104.736 112.313C104.103 112.313 103.538 112.491 103.041 112.847C102.549 113.199 102.158 113.675 101.868 114.275C101.582 114.875 101.433 115.546 101.421 116.287V116.597C101.421 117.392 101.559 118.106 101.837 118.739C102.118 119.368 102.52 119.867 103.041 120.235C103.563 120.599 104.188 120.781 104.916 120.781C105.438 120.781 105.882 120.695 106.251 120.521C106.623 120.343 106.928 120.128 107.163 119.875C107.399 119.623 107.577 119.378 107.697 119.143L108.386 119.422C108.242 119.741 108.016 120.059 107.71 120.378C107.408 120.693 107.023 120.955 106.555 121.166C106.091 121.377 105.545 121.483 104.916 121.483Z" fill="#AFAFAF"/>
<path d="M111.829 121.284V111.748H112.568V113.238H112.636C112.843 112.75 113.193 112.359 113.685 112.065C114.178 111.767 114.738 111.618 115.368 111.618C115.434 111.618 115.5 111.618 115.566 111.618C115.632 111.618 115.695 111.62 115.752 111.624V112.388C115.703 112.384 115.643 112.378 115.572 112.369C115.506 112.357 115.423 112.351 115.324 112.351C114.794 112.351 114.322 112.465 113.909 112.692C113.499 112.92 113.176 113.234 112.94 113.636C112.704 114.033 112.586 114.488 112.586 115.002V121.284H111.829Z" fill="#AFAFAF"/>
<path d="M125.574 111.748L122.128 121.284H121.271L117.826 111.748H118.639L121.669 120.31H121.731L124.76 111.748H125.574Z" fill="#AFAFAF"/>
<path d="M128.502 121.284V111.748H129.254V121.284H128.502ZM128.881 110.06C128.716 110.06 128.571 110.002 128.447 109.886C128.326 109.77 128.266 109.629 128.266 109.464C128.266 109.298 128.326 109.158 128.447 109.042C128.567 108.926 128.711 108.868 128.881 108.868C129.047 108.868 129.189 108.926 129.309 109.042C129.434 109.158 129.496 109.298 129.496 109.464C129.496 109.629 129.436 109.77 129.316 109.886C129.196 110.002 129.051 110.06 128.881 110.06Z" fill="#AFAFAF"/>
<path d="M136.526 121.483C135.715 121.483 135.001 121.27 134.385 120.844C133.768 120.413 133.286 119.825 132.938 119.08C132.595 118.335 132.423 117.491 132.423 116.547C132.423 115.604 132.597 114.759 132.944 114.015C133.292 113.27 133.774 112.682 134.391 112.251C135.007 111.821 135.717 111.606 136.52 111.606C137.124 111.606 137.675 111.73 138.172 111.978C138.672 112.227 139.086 112.572 139.413 113.015C139.744 113.458 139.955 113.971 140.046 114.555H139.277C139.153 113.909 138.842 113.375 138.345 112.953C137.853 112.527 137.247 112.313 136.526 112.313C135.881 112.313 135.305 112.496 134.801 112.86C134.296 113.22 133.898 113.719 133.609 114.356C133.319 114.989 133.174 115.716 133.174 116.535C133.174 117.342 133.315 118.066 133.596 118.708C133.878 119.345 134.271 119.85 134.776 120.223C135.281 120.595 135.864 120.781 136.526 120.781C136.994 120.781 137.42 120.688 137.805 120.502C138.194 120.316 138.519 120.051 138.78 119.707C139.041 119.364 139.213 118.962 139.295 118.503H140.065C139.974 119.091 139.767 119.608 139.444 120.055C139.121 120.502 138.71 120.852 138.209 121.104C137.708 121.357 137.147 121.483 136.526 121.483Z" fill="#AFAFAF"/>
<path d="M146.891 121.483C146.03 121.483 145.281 121.27 144.644 120.844C144.006 120.417 143.514 119.834 143.166 119.093C142.818 118.352 142.645 117.508 142.645 116.56C142.645 115.608 142.818 114.759 143.166 114.015C143.518 113.27 144 112.682 144.613 112.251C145.225 111.821 145.925 111.606 146.711 111.606C147.245 111.606 147.75 111.713 148.226 111.929C148.706 112.14 149.128 112.446 149.492 112.847C149.861 113.249 150.148 113.733 150.355 114.3C150.566 114.867 150.672 115.504 150.672 116.212V116.684H143.123V115.995H149.914C149.914 115.304 149.774 114.681 149.492 114.126C149.211 113.572 148.828 113.131 148.344 112.804C147.859 112.477 147.315 112.313 146.711 112.313C146.078 112.313 145.513 112.491 145.016 112.847C144.524 113.199 144.132 113.675 143.843 114.275C143.557 114.875 143.408 115.546 143.396 116.287V116.597C143.396 117.392 143.534 118.106 143.812 118.739C144.093 119.368 144.495 119.867 145.016 120.235C145.538 120.599 146.163 120.781 146.891 120.781C147.412 120.781 147.857 120.695 148.226 120.521C148.598 120.343 148.902 120.128 149.138 119.875C149.374 119.623 149.552 119.378 149.672 119.143L150.361 119.422C150.217 119.741 149.991 120.059 149.685 120.378C149.383 120.693 148.998 120.955 148.53 121.166C148.066 121.377 147.52 121.483 146.891 121.483Z" fill="#AFAFAF"/>
<path d="M159.863 113.803L159.161 113.99C159.05 113.642 158.89 113.342 158.683 113.089C158.476 112.837 158.216 112.642 157.901 112.506C157.591 112.365 157.218 112.295 156.784 112.295C156.084 112.295 155.511 112.469 155.064 112.816C154.621 113.164 154.4 113.617 154.4 114.176C154.4 114.631 154.551 115.008 154.853 115.306C155.155 115.6 155.617 115.823 156.237 115.976L157.702 116.343C158.456 116.529 159.023 116.831 159.404 117.249C159.784 117.663 159.975 118.178 159.975 118.795C159.975 119.32 159.832 119.786 159.546 120.192C159.261 120.597 158.866 120.914 158.361 121.142C157.86 121.369 157.276 121.483 156.61 121.483C155.72 121.483 154.989 121.276 154.418 120.862C153.847 120.444 153.481 119.846 153.319 119.068L154.046 118.882C154.182 119.503 154.466 119.976 154.896 120.303C155.331 120.626 155.9 120.788 156.604 120.788C157.382 120.788 158.009 120.604 158.485 120.235C158.965 119.867 159.205 119.395 159.205 118.82C159.205 118.381 159.064 118.011 158.783 117.708C158.501 117.406 158.075 117.185 157.504 117.044L155.983 116.672C155.205 116.481 154.621 116.177 154.232 115.759C153.843 115.337 153.649 114.817 153.649 114.201C153.649 113.688 153.783 113.236 154.052 112.847C154.321 112.458 154.691 112.154 155.163 111.935C155.635 111.715 156.175 111.606 156.784 111.606C157.591 111.606 158.249 111.796 158.758 112.177C159.267 112.558 159.635 113.1 159.863 113.803Z" fill="#AFAFAF"/>
<path d="M10.3802 97.246H25.131V97.7923H10.3802V97.246Z" fill="#6C6C6C"/>
<path d="M145.323 97.246H160.073V97.7923H145.323V97.246Z" fill="#6C6C6C"/>
<path fill-rule="evenodd" clip-rule="evenodd" d="M115.401 37.2765L85.1964 14.2618L54.9913 37.2765L85.1964 59.8117L115.401 37.2765Z" fill="#6E89B2"/>
<path fill-rule="evenodd" clip-rule="evenodd" d="M83.3642 26.388C84.7839 25.839 88.3542 25.2236 93.7637 29.5078C95.3846 30.7916 96.1493 32.2336 96.1101 32.2026C96.2975 32.4475 96.6295 32.7104 96.8874 32.786L97.3291 32.9104C97.4581 32.9483 97.6848 33.0635 97.8019 33.1562L98.7784 33.9296C98.8957 34.0225 98.9306 34.179 98.8523 34.2778L96.5346 37.2049C96.4562 37.3038 96.2959 37.3055 96.1788 37.2127L95.2022 36.4393C95.085 36.3465 94.9405 36.1677 94.8546 36.0354C94.8546 36.0354 94.7651 35.8678 94.6324 35.634C94.4997 35.4003 94.1638 35.1021 93.8864 35.011C93.8864 35.011 93.4408 34.8514 93.2337 34.7517C93.14 34.7096 93.0071 34.6365 92.9095 34.5592C92.6985 34.4243 92.4133 34.4235 92.1355 34.4932L91.3768 34.729C91.326 34.7531 91.2752 34.7772 91.2439 34.8167L89.6933 36.7745C89.6463 36.8339 89.6227 36.9439 89.6304 37.0143L89.6264 37.1398C89.6341 37.2102 89.6104 37.3203 89.5634 37.3796L87.1788 40.46L91.1849 44.6852C91.4019 44.9022 91.599 45.0904 91.7737 45.2572C92.8061 46.2429 93.0541 46.4797 92 47.5C90.9462 48.52 90.733 48.2966 89.7556 47.2727C89.5899 47.0992 89.4023 46.9026 89.1849 46.6852L85.3379 42.8382L81.3015 48.0522C81.1292 48.2698 80.7229 48.1409 80.4885 47.9553L78.7309 46.5634C78.4965 46.3777 78.3951 46.1045 78.5674 45.8869L82.9621 40.4624L79.6849 37.1852C78.454 37.7036 76.9892 38.0047 75.7166 37.5923C74.4439 37.1796 73.3734 36.3251 72.7104 35.1929C72.0473 34.0607 71.839 32.7306 72.1252 31.4582C72.1648 31.3633 72.2481 31.2915 72.3498 31.2646C72.4517 31.2374 72.561 31.2578 72.6453 31.3197L75.2597 33.854C75.4149 34.0061 75.6434 34.0632 75.8548 34.0025C75.8877 34.0043 75.9209 34.0043 75.9536 34.0025L77.9936 33.7946C78.3484 33.7946 78.6361 33.5154 78.6361 33.1709L78.8504 31.191C78.8522 31.159 78.8522 31.1271 78.8504 31.0951C78.9035 30.8972 78.8452 30.6865 78.6971 30.5407L76.086 28.0031C76.0076 27.9193 75.9788 27.8024 76.01 27.6932C76.0408 27.5842 76.1275 27.498 76.239 27.4653C78.0509 27.0696 79.9456 27.5983 81.2644 28.8677C82.0377 29.6204 82.5589 30.5824 82.7597 31.6275C82.9605 32.6726 82.6266 34.2201 82.1849 35.1929L84.906 38.0629L87.0636 35.3998C87.095 35.3601 87.1967 35.312 87.267 35.3034L87.3919 35.3058C87.4466 35.3169 87.5483 35.2686 87.5953 35.2093L89.1771 33.2121C89.2084 33.1725 89.2359 33.0978 89.232 33.0626L89.2682 32.2546C89.2882 31.9486 89.1907 31.7105 88.8977 31.4785L88.5853 31.2311C88.4096 31.0919 88.2185 30.8117 88.1248 30.6088C88.0681 30.486 88.0598 30.3806 88.0527 30.2889C88.051 30.267 88.0493 30.2458 88.0471 30.2254C88.0489 30.1763 88.0506 30.1282 88.0523 30.081C88.098 28.8383 88.1182 28.289 87.5612 27.9099C86.4633 27.1693 84.56 26.8845 83.4809 26.8023C83.0471 26.7482 82.9534 26.5454 83.3642 26.388Z" fill="white"/>
</svg>
