<svg width="171" height="136" viewBox="0 0 171 136" fill="none" xmlns="http://www.w3.org/2000/svg">
<path d="M0 0H171V135H0V0Z" fill="white"/>
<path d="M49.7145 39.3598C48.2765 40.7979 45.8786 40.3185 44.9199 38.4011C43.9613 36.4838 44.4406 34.0857 45.8786 32.6479L83.2771 4.35951C84.7151 3.88016 85.675 3.88016 87.113 4.35951L124.032 32.6479C125.95 34.086 126.43 36.4839 125.47 38.4011C124.512 40.3186 122.114 40.799 120.676 39.3598L85.194 12.5095L49.7122 39.3598H49.7145Z" fill="#6E89B2"/>
<path d="M15.6735 80.1154C14.2354 81.5534 11.8375 80.5947 10.8789 79.1567C9.92021 77.2393 10.3995 74.3621 11.8376 73.4035L49.236 45.1151C50.1947 44.1564 51.6339 44.6357 53.072 45.1151L85.1967 69.5675L117.321 45.1151C118.759 44.1564 120.199 44.6357 121.157 45.1151L158.556 73.4035C159.994 74.3622 160.473 77.2394 159.514 79.1567C158.556 80.5947 156.158 81.5546 154.72 80.1154L119.238 53.265C107.731 61.8956 96.7029 70.5262 85.1967 79.1568L51.1554 53.265L15.6735 80.1154Z" fill="#6E89B2"/>
<path fill-rule="evenodd" clip-rule="evenodd" d="M150.404 82.5112V117.032C150.404 119.909 148.006 122.306 145.13 122.306H130.267V95.9346C130.267 93.0574 128.349 91.14 125.951 91.14H112.526C110.128 91.14 108.211 93.0574 108.211 95.9346V122.306H93.3474C90.4702 122.306 88.0734 119.908 88.0734 117.032V82.5112L119.24 58.5379L150.406 82.5112H150.404ZM116.842 75.3187H121.636C122.595 75.3187 123.554 76.2774 123.554 77.2361V82.0307C123.554 82.9894 122.595 83.9481 121.636 83.9481H116.842C115.883 83.9481 114.924 82.9894 114.924 82.0307V77.2361C114.924 76.2774 115.883 75.3187 116.842 75.3187Z" fill="#6E89B2"/>
<path fill-rule="evenodd" clip-rule="evenodd" d="M82.3184 82.5112V117.032C82.3184 119.909 79.9205 122.306 77.0443 122.306H62.1811V95.9346C62.1811 93.0574 60.2637 91.14 57.3865 91.14H44.4405C42.0426 91.14 39.6459 93.0574 39.6459 95.9346V122.306H25.2621C22.3848 122.306 19.988 119.908 19.988 117.032V82.5112L51.1544 58.5379L82.3207 82.5112H82.3184ZM48.7562 75.3187H53.5508C54.5095 75.3187 55.4682 76.2774 55.4682 77.2361V82.0307C55.4682 82.9894 54.5095 83.9481 53.5508 83.9481H48.7562C47.7975 83.9481 46.8388 82.9894 46.8388 82.0307V77.2361C46.8388 76.2774 47.7975 75.3187 48.7562 75.3187Z" fill="#6E89B2"/>
<path d="M0 90.3195H171V135.118H0V90.3195Z" fill="white"/>
<path d="M27.1139 107.802H26.2944L30.8823 95.0874H31.7763L36.3642 107.802H35.5447L31.3604 96.0869H31.2983L27.1139 107.802ZM28.2749 103.015H34.3838V103.736H28.2749V103.015Z" fill="#6C6C6C"/>
<path d="M53.0845 95.0874V107.802H52.3271L44.2191 96.4967H44.1446V107.802H43.3686V95.0874H44.1322L52.2402 106.405H52.3147V95.0874H53.0845Z" fill="#6C6C6C"/>
<path d="M64.9127 107.802H61.3864V95.0874H65.1859C66.3779 95.0874 67.3981 95.3399 68.2465 95.8448C69.095 96.3498 69.7448 97.0741 70.1959 98.0177C70.6512 98.9572 70.8768 100.085 70.8726 101.401C70.8685 102.746 70.6326 103.897 70.1649 104.853C69.6972 105.805 69.0205 106.535 68.1348 107.045C67.2491 107.549 66.1751 107.802 64.9127 107.802ZM62.1625 107.082H64.8817C66.0157 107.082 66.9718 106.856 67.7499 106.405C68.528 105.95 69.1157 105.298 69.513 104.449C69.9145 103.601 70.1132 102.585 70.109 101.401C70.109 100.234 69.9166 99.2345 69.5317 98.4026C69.1467 97.5666 68.5859 96.9251 67.8492 96.4781C67.1166 96.0311 66.2185 95.8076 65.1548 95.8076H62.1625V107.082Z" fill="#6C6C6C"/>
<path d="M78.5336 107.802V95.0874H82.451C83.2539 95.0874 83.9451 95.2447 84.5245 95.5592C85.104 95.8738 85.5489 96.3104 85.8593 96.8692C86.1697 97.4238 86.3249 98.0694 86.3249 98.8062C86.3249 99.5346 86.1697 100.176 85.8593 100.731C85.5489 101.281 85.104 101.712 84.5245 102.022C83.9492 102.332 83.2601 102.488 82.4572 102.488H78.9495V101.761H82.4385C83.0925 101.761 83.6512 101.639 84.1148 101.395C84.5783 101.151 84.9343 100.809 85.1826 100.371C85.4309 99.9278 85.5551 99.4063 85.5551 98.8062C85.5551 98.2019 85.4309 97.6763 85.1826 97.2293C84.9343 96.7781 84.5762 96.4284 84.1086 96.1801C83.645 95.9317 83.0863 95.8076 82.4323 95.8076H79.3096V107.802H78.5336ZM83.7547 102.041L86.8836 107.802H85.9897L82.8793 102.041H83.7547Z" fill="#6C6C6C"/>
<path d="M94.8348 95.0874V107.802H94.0588V95.0874H94.8348Z" fill="#6C6C6C"/>
<path d="M110.001 98.266C109.935 97.4755 109.612 96.8361 109.033 96.3477C108.458 95.8593 107.713 95.6151 106.798 95.6151C106.181 95.6151 105.633 95.7289 105.153 95.9566C104.673 96.1842 104.296 96.4946 104.023 96.8878C103.75 97.281 103.613 97.7321 103.613 98.2412C103.613 98.5682 103.675 98.8641 103.799 99.129C103.928 99.3897 104.108 99.6236 104.34 99.8305C104.571 100.033 104.847 100.211 105.165 100.364C105.484 100.518 105.836 100.652 106.221 100.768L107.611 101.178C108.087 101.323 108.526 101.49 108.927 101.681C109.333 101.871 109.685 102.099 109.983 102.363C110.285 102.624 110.519 102.931 110.684 103.282C110.854 103.634 110.939 104.04 110.939 104.499C110.939 105.17 110.765 105.77 110.417 106.3C110.074 106.829 109.583 107.247 108.946 107.554C108.313 107.856 107.566 108.007 106.705 108.007C105.885 108.007 105.171 107.868 104.563 107.591C103.959 107.314 103.481 106.929 103.129 106.436C102.777 105.939 102.578 105.368 102.533 104.723H103.328C103.369 105.248 103.537 105.704 103.83 106.088C104.128 106.469 104.524 106.763 105.016 106.97C105.509 107.177 106.072 107.28 106.705 107.28C107.388 107.28 107.99 107.165 108.512 106.933C109.033 106.697 109.441 106.37 109.735 105.952C110.028 105.534 110.175 105.048 110.175 104.493C110.175 104.046 110.07 103.663 109.859 103.344C109.648 103.026 109.335 102.75 108.921 102.519C108.512 102.287 108.002 102.08 107.394 101.898L105.91 101.451C104.917 101.149 104.157 100.737 103.632 100.215C103.11 99.6939 102.85 99.0441 102.85 98.266C102.85 97.6121 103.023 97.0327 103.371 96.5277C103.719 96.0187 104.191 95.6193 104.787 95.3295C105.387 95.0398 106.063 94.895 106.817 94.895C107.574 94.895 108.242 95.0419 108.822 95.3357C109.401 95.6255 109.861 96.0249 110.2 96.5339C110.54 97.0389 110.728 97.6162 110.765 98.266H110.001Z" fill="#6C6C6C"/>
<path d="M128.324 99.0607H127.529C127.446 98.6303 127.291 98.2143 127.063 97.8128C126.836 97.4072 126.542 97.043 126.182 96.7202C125.826 96.3932 125.412 96.1345 124.94 95.9442C124.468 95.7538 123.947 95.6586 123.376 95.6586C122.54 95.6586 121.77 95.8821 121.066 96.3291C120.367 96.7719 119.806 97.4238 119.384 98.2847C118.966 99.1455 118.757 100.199 118.757 101.445C118.757 102.699 118.966 103.756 119.384 104.617C119.806 105.478 120.367 106.13 121.066 106.573C121.77 107.011 122.54 107.231 123.376 107.231C123.947 107.231 124.468 107.138 124.94 106.951C125.412 106.761 125.826 106.504 126.182 106.182C126.542 105.855 126.836 105.488 127.063 105.083C127.291 104.677 127.446 104.259 127.529 103.829H128.324C128.232 104.342 128.057 104.845 127.796 105.337C127.539 105.83 127.2 106.277 126.778 106.678C126.36 107.076 125.865 107.392 125.294 107.628C124.727 107.86 124.087 107.976 123.376 107.976C122.316 107.976 121.383 107.707 120.576 107.169C119.769 106.626 119.135 105.865 118.676 104.884C118.221 103.903 117.993 102.757 117.993 101.445C117.993 100.133 118.221 98.9862 118.676 98.0053C119.135 97.0244 119.769 96.2649 120.576 95.7269C121.383 95.1847 122.316 94.9136 123.376 94.9136C124.087 94.9136 124.727 95.0315 125.294 95.2675C125.865 95.4992 126.36 95.8138 126.778 96.2111C127.2 96.6043 127.539 97.0472 127.796 97.5397C128.057 98.0322 128.232 98.5392 128.324 99.0607Z" fill="#6C6C6C"/>
<path d="M135.449 107.802H134.629L139.217 95.0874H140.111L144.699 107.802H143.88L139.695 96.0869H139.633L135.449 107.802ZM136.61 103.015H142.719V103.736H136.61V103.015Z" fill="#6C6C6C"/>
<path d="M11.2659 125.284V112.57H15.1833C15.9903 112.57 16.6815 112.735 17.2568 113.067C17.8363 113.398 18.2812 113.851 18.5916 114.426C18.902 115.001 19.0572 115.657 19.0572 116.394C19.0572 117.123 18.902 117.774 18.5916 118.35C18.2812 118.925 17.8363 119.38 17.2568 119.716C16.6815 120.047 15.9924 120.212 15.1895 120.212H11.8122V119.492H15.1709C15.8248 119.492 16.3835 119.36 16.8471 119.095C17.3106 118.826 17.6666 118.459 17.9149 117.996C18.1632 117.528 18.2874 116.994 18.2874 116.394C18.2874 115.79 18.1632 115.254 17.9149 114.786C17.6666 114.319 17.3086 113.952 16.8409 113.687C16.3773 113.422 15.8186 113.29 15.1646 113.29H12.0419V125.284H11.2659Z" fill="#AFAFAF"/>
<path d="M22.2963 125.284V115.748H23.035V117.238H23.1033C23.3103 116.75 23.66 116.359 24.1525 116.065C24.645 115.767 25.2059 115.618 25.835 115.618C25.9012 115.618 25.9674 115.618 26.0336 115.618C26.0998 115.618 26.1619 115.62 26.2199 115.624V116.388C26.1702 116.384 26.1102 116.378 26.0398 116.369C25.9736 116.357 25.8908 116.351 25.7915 116.351C25.2617 116.351 24.7899 116.465 24.376 116.692C23.9663 116.92 23.6434 117.234 23.4075 117.636C23.1716 118.033 23.0537 118.488 23.0537 119.002V125.284H22.2963Z" fill="#AFAFAF"/>
<path d="M32.0338 125.483C31.2474 125.483 30.5479 125.272 29.9354 124.85C29.3228 124.423 28.8407 123.838 28.4889 123.093C28.1371 122.348 27.9612 121.499 27.9612 120.547C27.9612 119.591 28.1371 118.743 28.4889 118.002C28.8407 117.257 29.3228 116.671 29.9354 116.245C30.5479 115.819 31.2474 115.606 32.0338 115.606C32.8201 115.606 33.5196 115.819 34.1322 116.245C34.7447 116.671 35.2269 117.257 35.5787 118.002C35.9305 118.747 36.1064 119.596 36.1064 120.547C36.1064 121.499 35.9305 122.348 35.5787 123.093C35.2269 123.838 34.7447 124.423 34.1322 124.85C33.5196 125.272 32.8201 125.483 32.0338 125.483ZM32.0338 124.781C32.7001 124.781 33.2816 124.593 33.7783 124.217C34.2791 123.84 34.6661 123.331 34.9392 122.689C35.2165 122.048 35.3552 121.334 35.3552 120.547C35.3552 119.761 35.2165 119.049 34.9392 118.412C34.6619 117.77 34.2749 117.261 33.7783 116.885C33.2816 116.504 32.7001 116.313 32.0338 116.313C31.3674 116.313 30.7859 116.504 30.2892 116.885C29.7926 117.261 29.4056 117.77 29.1283 118.412C28.851 119.049 28.7124 119.761 28.7124 120.547C28.7124 121.334 28.8489 122.048 29.1221 122.689C29.3994 123.331 29.7864 123.84 30.283 124.217C30.7838 124.593 31.3674 124.781 32.0338 124.781Z" fill="#AFAFAF"/>
<path d="M39.2399 128.86V115.748H39.9786V117.878H40.0718C40.2208 117.468 40.4298 117.092 40.6988 116.748C40.972 116.404 41.3093 116.129 41.7108 115.922C42.1164 115.711 42.5923 115.606 43.1386 115.606C43.9085 115.606 44.579 115.817 45.1501 116.239C45.7213 116.661 46.1641 117.245 46.4787 117.99C46.7932 118.731 46.9505 119.581 46.9505 120.541C46.9505 121.501 46.7912 122.354 46.4725 123.099C46.1579 123.84 45.7151 124.423 45.1439 124.85C44.5769 125.272 43.9126 125.483 43.1511 125.483C42.6089 125.483 42.1329 125.38 41.7232 125.173C41.3176 124.966 40.9761 124.69 40.6988 124.347C40.4256 123.999 40.2166 123.618 40.0718 123.205H39.9973V128.86H39.2399ZM39.9849 120.535C39.9849 121.346 40.109 122.073 40.3574 122.714C40.6057 123.352 40.9616 123.856 41.4252 124.229C41.8887 124.597 42.4413 124.781 43.0828 124.781C43.7326 124.781 44.2892 124.595 44.7528 124.223C45.2205 123.846 45.5764 123.337 45.8206 122.696C46.0689 122.054 46.1931 121.334 46.1931 120.535C46.1931 119.736 46.071 119.018 45.8268 118.381C45.5826 117.743 45.2288 117.241 44.7652 116.872C44.3017 116.5 43.7408 116.313 43.0828 116.313C42.433 116.313 41.8763 116.498 41.4128 116.866C40.9533 117.23 40.5995 117.731 40.3511 118.368C40.107 119.002 39.9849 119.724 39.9849 120.535Z" fill="#AFAFAF"/>
<path d="M53.812 125.483C52.9512 125.483 52.202 125.27 51.5647 124.844C50.9273 124.417 50.4348 123.834 50.0871 123.093C49.7394 122.352 49.5656 121.508 49.5656 120.56C49.5656 119.608 49.7394 118.759 50.0871 118.015C50.4389 117.27 50.9211 116.682 51.5336 116.251C52.1462 115.821 52.8456 115.606 53.632 115.606C54.1659 115.606 54.6709 115.713 55.1468 115.929C55.6269 116.14 56.0491 116.446 56.4133 116.847C56.7817 117.249 57.0693 117.733 57.2763 118.3C57.4873 118.867 57.5929 119.504 57.5929 120.212V120.684H50.0436V119.995H56.8355C56.8355 119.304 56.6948 118.681 56.4133 118.126C56.1319 117.572 55.749 117.131 55.2648 116.804C54.7805 116.477 54.2363 116.313 53.632 116.313C52.9988 116.313 52.4338 116.491 51.9372 116.847C51.4446 117.199 51.0535 117.675 50.7638 118.275C50.4782 118.875 50.3292 119.546 50.3168 120.287V120.597C50.3168 121.392 50.4555 122.106 50.7328 122.739C51.0142 123.368 51.4157 123.867 51.9372 124.235C52.4587 124.599 53.0836 124.781 53.812 124.781C54.3335 124.781 54.7785 124.695 55.1468 124.521C55.5193 124.343 55.8235 124.128 56.0594 123.875C56.2954 123.623 56.4733 123.378 56.5933 123.143L57.2825 123.422C57.1376 123.741 56.912 124.059 56.6058 124.378C56.3036 124.693 55.9187 124.955 55.451 125.166C54.9875 125.377 54.4412 125.483 53.812 125.483Z" fill="#AFAFAF"/>
<path d="M60.7248 125.284V115.748H61.4636V117.238H61.5319C61.7388 116.75 62.0886 116.359 62.5811 116.065C63.0736 115.767 63.6344 115.618 64.2635 115.618C64.3297 115.618 64.396 115.618 64.4622 115.618C64.5284 115.618 64.5905 115.62 64.6484 115.624V116.388C64.5988 116.384 64.5387 116.378 64.4684 116.369C64.4022 116.357 64.3194 116.351 64.2201 116.351C63.6903 116.351 63.2185 116.465 62.8046 116.692C62.3948 116.92 62.072 117.234 61.8361 117.636C61.6002 118.033 61.4822 118.488 61.4822 119.002V125.284H60.7248Z" fill="#AFAFAF"/>
<path d="M71.1763 115.748V116.425H67.0105V115.748H71.1763ZM68.4198 113.464H69.171V123.031C69.171 123.42 69.2455 123.739 69.3945 123.987C69.5476 124.231 69.7463 124.413 69.9905 124.533C70.2388 124.649 70.5037 124.707 70.7852 124.707C70.9217 124.707 71.0397 124.697 71.139 124.676C71.2425 124.655 71.3398 124.628 71.4308 124.595L71.6171 125.284C71.5012 125.326 71.3729 125.361 71.2322 125.39C71.0914 125.423 70.9259 125.44 70.7355 125.44C70.3382 125.44 69.9615 125.351 69.6056 125.173C69.2538 124.995 68.9682 124.736 68.7489 124.397C68.5295 124.057 68.4198 123.647 68.4198 123.167V113.464Z" fill="#AFAFAF"/>
<path d="M75.1184 128.86C74.928 128.86 74.7397 128.84 74.5534 128.798C74.3672 128.757 74.1996 128.703 74.0506 128.637L74.2741 127.973C74.6631 128.122 75.0149 128.175 75.3295 128.134C75.6482 128.093 75.9296 127.948 76.1738 127.699C76.418 127.451 76.6249 127.087 76.7946 126.607L77.2292 125.415L73.734 115.748H74.5472L77.5769 124.31H77.6389L80.6686 115.748H81.4819L77.4589 126.905C77.3058 127.335 77.1133 127.695 76.8815 127.985C76.6498 128.275 76.3849 128.492 76.0869 128.637C75.793 128.786 75.4702 128.86 75.1184 128.86Z" fill="#AFAFAF"/>
<path d="M96.9355 115.748C96.8693 114.958 96.5464 114.319 95.967 113.83C95.3917 113.342 94.6467 113.098 93.732 113.098C93.1153 113.098 92.5669 113.211 92.0868 113.439C91.6067 113.667 91.2301 113.977 90.9569 114.37C90.6838 114.763 90.5472 115.215 90.5472 115.724C90.5472 116.051 90.6093 116.347 90.7335 116.611C90.8618 116.872 91.0418 117.106 91.2736 117.313C91.5053 117.516 91.7806 117.694 92.0993 117.847C92.418 118 92.7698 118.135 93.1547 118.25L94.5453 118.66C95.0213 118.805 95.46 118.973 95.8615 119.163C96.2671 119.353 96.6189 119.581 96.9169 119.846C97.219 120.107 97.4528 120.413 97.6184 120.765C97.7881 121.117 97.8729 121.522 97.8729 121.982C97.8729 122.652 97.6991 123.252 97.3514 123.782C97.0079 124.312 96.5175 124.73 95.8801 125.036C95.2468 125.338 94.4998 125.489 93.6389 125.489C92.8194 125.489 92.1055 125.351 91.4971 125.073C90.8928 124.796 90.4148 124.411 90.063 123.919C89.7112 123.422 89.5125 122.851 89.467 122.205H90.2616C90.303 122.731 90.4706 123.186 90.7645 123.571C91.0625 123.952 91.4577 124.246 91.9503 124.452C92.4428 124.659 93.0057 124.763 93.6389 124.763C94.3218 124.763 94.924 124.647 95.4455 124.415C95.967 124.179 96.3747 123.852 96.6685 123.434C96.9624 123.016 97.1093 122.53 97.1093 121.975C97.1093 121.528 97.0038 121.146 96.7927 120.827C96.5816 120.508 96.2691 120.233 95.8553 120.001C95.4455 119.769 94.9364 119.562 94.328 119.38L92.8443 118.933C91.8509 118.631 91.0915 118.219 90.5658 117.698C90.0443 117.176 89.7836 116.527 89.7836 115.748C89.7836 115.095 89.9574 114.515 90.3051 114.01C90.6527 113.501 91.1246 113.102 91.7206 112.812C92.3207 112.522 92.9974 112.377 93.7507 112.377C94.5081 112.377 95.1765 112.524 95.7559 112.818C96.3354 113.108 96.7948 113.507 97.1341 114.016C97.4735 114.521 97.6619 115.099 97.6991 115.748H96.9355Z" fill="#AFAFAF"/>
<path d="M104.916 125.483C104.055 125.483 103.306 125.27 102.669 124.844C102.031 124.417 101.539 123.834 101.191 123.093C100.843 122.352 100.67 121.508 100.67 120.56C100.67 119.608 100.843 118.759 101.191 118.015C101.543 117.27 102.025 116.682 102.638 116.251C103.25 115.821 103.95 115.606 104.736 115.606C105.27 115.606 105.775 115.713 106.251 115.929C106.731 116.14 107.153 116.446 107.517 116.847C107.886 117.249 108.173 117.733 108.38 118.3C108.591 118.867 108.697 119.504 108.697 120.212V120.684H101.148V119.995H107.939C107.939 119.304 107.799 118.681 107.517 118.126C107.236 117.572 106.853 117.131 106.369 116.804C105.885 116.477 105.34 116.313 104.736 116.313C104.103 116.313 103.538 116.491 103.041 116.847C102.549 117.199 102.158 117.675 101.868 118.275C101.582 118.875 101.433 119.546 101.421 120.287V120.597C101.421 121.392 101.559 122.106 101.837 122.739C102.118 123.368 102.52 123.867 103.041 124.235C103.563 124.599 104.188 124.781 104.916 124.781C105.438 124.781 105.882 124.695 106.251 124.521C106.623 124.343 106.928 124.128 107.163 123.875C107.399 123.623 107.577 123.378 107.697 123.143L108.386 123.422C108.242 123.741 108.016 124.059 107.71 124.378C107.408 124.693 107.023 124.955 106.555 125.166C106.091 125.377 105.545 125.483 104.916 125.483Z" fill="#AFAFAF"/>
<path d="M111.829 125.284V115.748H112.568V117.238H112.636C112.843 116.75 113.193 116.359 113.685 116.065C114.178 115.767 114.738 115.618 115.368 115.618C115.434 115.618 115.5 115.618 115.566 115.618C115.632 115.618 115.695 115.62 115.752 115.624V116.388C115.703 116.384 115.643 116.378 115.572 116.369C115.506 116.357 115.423 116.351 115.324 116.351C114.794 116.351 114.322 116.465 113.909 116.692C113.499 116.92 113.176 117.234 112.94 117.636C112.704 118.033 112.586 118.488 112.586 119.002V125.284H111.829Z" fill="#AFAFAF"/>
<path d="M125.574 115.748L122.128 125.284H121.271L117.826 115.748H118.639L121.669 124.31H121.731L124.76 115.748H125.574Z" fill="#AFAFAF"/>
<path d="M128.502 125.284V115.748H129.254V125.284H128.502ZM128.881 114.06C128.716 114.06 128.571 114.002 128.447 113.886C128.326 113.77 128.266 113.629 128.266 113.464C128.266 113.298 128.326 113.158 128.447 113.042C128.567 112.926 128.711 112.868 128.881 112.868C129.047 112.868 129.189 112.926 129.309 113.042C129.434 113.158 129.496 113.298 129.496 113.464C129.496 113.629 129.436 113.77 129.316 113.886C129.196 114.002 129.051 114.06 128.881 114.06Z" fill="#AFAFAF"/>
<path d="M136.526 125.483C135.715 125.483 135.001 125.27 134.385 124.844C133.768 124.413 133.286 123.825 132.938 123.08C132.595 122.335 132.423 121.491 132.423 120.547C132.423 119.604 132.597 118.759 132.944 118.015C133.292 117.27 133.774 116.682 134.391 116.251C135.007 115.821 135.717 115.606 136.52 115.606C137.124 115.606 137.675 115.73 138.172 115.978C138.672 116.227 139.086 116.572 139.413 117.015C139.744 117.458 139.955 117.971 140.046 118.555H139.277C139.153 117.909 138.842 117.375 138.345 116.953C137.853 116.527 137.247 116.313 136.526 116.313C135.881 116.313 135.305 116.496 134.801 116.86C134.296 117.22 133.898 117.719 133.609 118.356C133.319 118.989 133.174 119.716 133.174 120.535C133.174 121.342 133.315 122.066 133.596 122.708C133.878 123.345 134.271 123.85 134.776 124.223C135.281 124.595 135.864 124.781 136.526 124.781C136.994 124.781 137.42 124.688 137.805 124.502C138.194 124.316 138.519 124.051 138.78 123.707C139.041 123.364 139.213 122.962 139.295 122.503H140.065C139.974 123.091 139.767 123.608 139.444 124.055C139.121 124.502 138.71 124.852 138.209 125.104C137.708 125.357 137.147 125.483 136.526 125.483Z" fill="#AFAFAF"/>
<path d="M146.891 125.483C146.03 125.483 145.281 125.27 144.644 124.844C144.006 124.417 143.514 123.834 143.166 123.093C142.818 122.352 142.645 121.508 142.645 120.56C142.645 119.608 142.818 118.759 143.166 118.015C143.518 117.27 144 116.682 144.613 116.251C145.225 115.821 145.925 115.606 146.711 115.606C147.245 115.606 147.75 115.713 148.226 115.929C148.706 116.14 149.128 116.446 149.492 116.847C149.861 117.249 150.148 117.733 150.355 118.3C150.566 118.867 150.672 119.504 150.672 120.212V120.684H143.123V119.995H149.914C149.914 119.304 149.774 118.681 149.492 118.126C149.211 117.572 148.828 117.131 148.344 116.804C147.859 116.477 147.315 116.313 146.711 116.313C146.078 116.313 145.513 116.491 145.016 116.847C144.524 117.199 144.132 117.675 143.843 118.275C143.557 118.875 143.408 119.546 143.396 120.287V120.597C143.396 121.392 143.534 122.106 143.812 122.739C144.093 123.368 144.495 123.867 145.016 124.235C145.538 124.599 146.163 124.781 146.891 124.781C147.412 124.781 147.857 124.695 148.226 124.521C148.598 124.343 148.902 124.128 149.138 123.875C149.374 123.623 149.552 123.378 149.672 123.143L150.361 123.422C150.217 123.741 149.991 124.059 149.685 124.378C149.383 124.693 148.998 124.955 148.53 125.166C148.066 125.377 147.52 125.483 146.891 125.483Z" fill="#AFAFAF"/>
<path d="M159.863 117.803L159.161 117.99C159.05 117.642 158.89 117.342 158.683 117.089C158.476 116.837 158.216 116.642 157.901 116.506C157.591 116.365 157.218 116.295 156.784 116.295C156.084 116.295 155.511 116.469 155.064 116.816C154.621 117.164 154.4 117.617 154.4 118.176C154.4 118.631 154.551 119.008 154.853 119.306C155.155 119.6 155.617 119.823 156.237 119.976L157.702 120.343C158.456 120.529 159.023 120.831 159.404 121.249C159.784 121.663 159.975 122.178 159.975 122.795C159.975 123.32 159.832 123.786 159.546 124.192C159.261 124.597 158.866 124.914 158.361 125.142C157.86 125.369 157.276 125.483 156.61 125.483C155.72 125.483 154.989 125.276 154.418 124.862C153.847 124.444 153.481 123.846 153.319 123.068L154.046 122.882C154.182 123.503 154.466 123.976 154.896 124.303C155.331 124.626 155.9 124.788 156.604 124.788C157.382 124.788 158.009 124.604 158.485 124.235C158.965 123.867 159.205 123.395 159.205 122.82C159.205 122.381 159.064 122.011 158.783 121.708C158.501 121.406 158.075 121.185 157.504 121.044L155.983 120.672C155.205 120.481 154.621 120.177 154.232 119.759C153.843 119.337 153.649 118.817 153.649 118.201C153.649 117.688 153.783 117.236 154.052 116.847C154.321 116.458 154.691 116.154 155.163 115.935C155.635 115.715 156.175 115.606 156.784 115.606C157.591 115.606 158.249 115.796 158.758 116.177C159.267 116.558 159.635 117.1 159.863 117.803Z" fill="#AFAFAF"/>
<path d="M10.3802 101.246H25.131V101.792H10.3802V101.246Z" fill="#6C6C6C"/>
<path d="M145.323 101.246H160.073V101.792H145.323V101.246Z" fill="#6C6C6C"/>
<path fill-rule="evenodd" clip-rule="evenodd" d="M115.401 41.2765L85.1964 18.2618L54.9913 41.2765L85.1964 63.8117L115.401 41.2765Z" fill="#6E89B2"/>
<path fill-rule="evenodd" clip-rule="evenodd" d="M83.3642 30.388C84.7839 29.839 88.3542 29.2236 93.7637 33.5078C95.3846 34.7916 96.1493 36.2336 96.1101 36.2026C96.2975 36.4475 96.6295 36.7104 96.8874 36.786L97.3291 36.9104C97.4581 36.9483 97.6848 37.0635 97.8019 37.1562L98.7784 37.9296C98.8957 38.0225 98.9306 38.179 98.8523 38.2778L96.5346 41.2049C96.4562 41.3038 96.2959 41.3055 96.1788 41.2127L95.2022 40.4393C95.085 40.3465 94.9405 40.1677 94.8546 40.0354C94.8546 40.0354 94.7651 39.8678 94.6324 39.634C94.4997 39.4003 94.1638 39.1021 93.8864 39.011C93.8864 39.011 93.4408 38.8514 93.2337 38.7517C93.14 38.7096 93.0071 38.6365 92.9095 38.5592C92.6985 38.4243 92.4133 38.4235 92.1355 38.4932L91.3768 38.729C91.326 38.7531 91.2752 38.7772 91.2439 38.8167L89.6933 40.7745C89.6463 40.8339 89.6227 40.9439 89.6304 41.0143L89.6264 41.1398C89.6341 41.2102 89.6104 41.3203 89.5634 41.3796L87.1788 44.46L91.1849 48.6852C91.4019 48.9022 91.599 49.0904 91.7737 49.2572C92.8061 50.2429 93.0541 50.4797 92 51.5C90.9462 52.52 90.733 52.2966 89.7556 51.2727C89.5899 51.0992 89.4023 50.9026 89.1849 50.6852L85.3379 46.8382L81.3015 52.0522C81.1292 52.2698 80.7229 52.1409 80.4885 51.9553L78.7309 50.5634C78.4965 50.3777 78.3951 50.1045 78.5674 49.8869L82.9621 44.4624L79.6849 41.1852C78.454 41.7036 76.9892 42.0047 75.7166 41.5923C74.4439 41.1796 73.3734 40.3251 72.7104 39.1929C72.0473 38.0607 71.839 36.7306 72.1252 35.4582C72.1648 35.3633 72.2481 35.2915 72.3498 35.2646C72.4517 35.2374 72.561 35.2578 72.6453 35.3197L75.2597 37.854C75.4149 38.0061 75.6434 38.0632 75.8548 38.0025C75.8877 38.0043 75.9209 38.0043 75.9536 38.0025L77.9936 37.7946C78.3484 37.7946 78.6361 37.5154 78.6361 37.1709L78.8504 35.191C78.8522 35.159 78.8522 35.1271 78.8504 35.0951C78.9035 34.8972 78.8452 34.6865 78.6971 34.5407L76.086 32.0031C76.0076 31.9193 75.9788 31.8024 76.01 31.6932C76.0408 31.5842 76.1275 31.498 76.239 31.4653C78.0509 31.0696 79.9456 31.5983 81.2644 32.8677C82.0377 33.6204 82.5589 34.5824 82.7597 35.6275C82.9605 36.6726 82.6266 38.2201 82.1849 39.1929L84.906 42.0629L87.0636 39.3998C87.095 39.3601 87.1967 39.312 87.267 39.3034L87.3919 39.3058C87.4466 39.3169 87.5483 39.2686 87.5953 39.2093L89.1771 37.2121C89.2084 37.1725 89.2359 37.0978 89.232 37.0626L89.2682 36.2546C89.2882 35.9486 89.1907 35.7105 88.8977 35.4785L88.5853 35.2311C88.4096 35.0919 88.2185 34.8117 88.1248 34.6088C88.0681 34.486 88.0598 34.3806 88.0527 34.2889C88.051 34.267 88.0493 34.2458 88.0471 34.2254C88.0489 34.1763 88.0506 34.1282 88.0523 34.081C88.098 32.8383 88.1182 32.289 87.5612 31.9099C86.4633 31.1693 84.56 30.8845 83.4809 30.8023C83.0471 30.7482 82.9534 30.5454 83.3642 30.388Z" fill="white"/>
</svg>
